<?xml version="1.0" encoding="UTF-8" standalone="no"?>
<!-- Created with Inkscape (http://www.inkscape.org/) -->

<svg
   id="svg2"
   sodipodi:docname="DeepPurpleDirectActionRabbit.svg"
   viewBox="0 0 259.91 260.87"
   version="1.1"
   inkscape:version="1.1.2 (0a00cf5339, 2022-02-04)"
   xmlns:inkscape="http://www.inkscape.org/namespaces/inkscape"
   xmlns:sodipodi="http://sodipodi.sourceforge.net/DTD/sodipodi-0.dtd"
   xmlns="http://www.w3.org/2000/svg"
   xmlns:svg="http://www.w3.org/2000/svg"
   xmlns:rdf="http://www.w3.org/1999/02/22-rdf-syntax-ns#"
   xmlns:cc="http://creativecommons.org/ns#"
   xmlns:dc="http://purl.org/dc/elements/1.1/">
  <defs
     id="defs31" />
  <title
     id="title2820">Direct Action Rabbit</title>
  <sodipodi:namedview
     id="namedview4"
     bordercolor="#666666"
     inkscape:pageshadow="2"
     guidetolerance="10"
     pagecolor="#ffffff"
     gridtolerance="10"
     inkscape:window-maximized="1"
     inkscape:zoom="1.7039711"
     objecttolerance="10"
     borderopacity="1"
     inkscape:current-layer="svg2"
     inkscape:cx="127.93644"
     inkscape:cy="129.4036"
     inkscape:window-y="0"
     inkscape:window-x="0"
     inkscape:window-width="1920"
     showgrid="false"
     inkscape:pageopacity="0"
     inkscape:window-height="1016"
     inkscape:pagecheckerboard="0" />
  <path
     id="path2818"
     style="fill:#4c2447;fill-opacity:1"
     d="m107.61 259.18c-38.79-8.47-66.426-27.55-87.847-60.63-7.194-11.11-13.594-27.44-17.494-44.61-2.3088-10.17-2.5214-12.8-2.0867-25.83 1.1839-35.468 16.173-67.433 43.808-93.42 30.475-28.656 71.53-40.341 112.83-32.114 23.993 4.7788 44.115 14.364 59.055 28.13 19.19 17.683 29.592 33.415 37.537 56.772 4.8054 14.127 6.4983 25.003 6.503 41.776 0.004 15.415-1.5492 25.457-6.2436 40.36-12.009 38.123-42.11 69.602-80.402 84.082-17.369 6.5679-48.732 9.19-65.662 5.4895zm21.413-27.202c0.47693-0.75287 0.87405-4.3607 0.88247-8.0174l0.0153-6.6485-7.1923-0.72229-7.1923-0.72229-3.7419 4.0115c-4.6533 4.9886-6.1199 10.82-3.2649 12.982 2.509 1.8999 19.186 1.1809 20.494-0.8835zm27.703-4.5806c0.63108-8.6967-3.5974-11.55-15.73-10.615-6.779 0.52276-8.044 0.88941-7.68 2.2261 0.23969 0.88014 0.73012 3.7639 1.0898 6.4084 0.81949 6.0244 2.1855 6.671 13.514 6.3973l8.5-0.20538 0.30563-4.2118zm-48.046-7.8006 2.2592-3.4876h-2.5749c-3.66 0-6.4434-1.7431-6.4434-4.0352 0-1.8439-0.73829-1.9648-12-1.9648-6.6 0-12 0.20298-12 0.45106 0 0.75862 12.993 7.7678 18.917 10.205 7.5774 3.1172 9.1674 2.9604 11.842-1.1683zm59.35 0.0511c4.065-1.9037 8.7172-4.356 10.338-5.4496l2.9476-1.9884-2.9476-1.1835c-1.6212-0.65095-5.2445-1.3989-8.0518-1.6621-4.5115-0.42301-5.1662-0.24134-5.6384 1.5646-0.35679 1.3644-1.9003 2.411-4.6459 3.1503-2.4348 0.65563-4.1116 1.7031-4.1116 2.5686 0 0.8038 0.44143 1.4615 0.98095 1.4615s1.2633 1.125 1.6084 2.5 0.9653 2.5 1.3782 2.5c0.41291 0 4.0766-1.5576 8.1416-3.4612zm48.391-3.5017c1.6046-0.65981 1.7035-0.93565 0.5-1.3954-11.859-4.5299-13.147-4.8235-15.991-3.6455-2.9298 1.2135-4.4582 3.4681-3.4533 5.094 0.6934 1.1219 16.192 1.0784 18.944-0.0532zm-17.045-13.537c3.946-10.202 5.1565-12.337 8.0792-14.25 4.3948-2.8764 4.9097-2.8475 14.066 0.78998 4.209 1.672 7.8539 2.8388 8.0998 2.5929 0.56914-0.56914-2.1159-5.5119-4.43-8.1549-4.2009-4.798-14.86-12.478-17.318-12.478-2.3176 0-3.0081 1.021-6.8748 10.164-2.3641 5.5903-5.1172 12.453-6.1179 15.25-1.0007 2.7972-2.7511 7.4532-3.8897 10.347-1.1386 2.8934-2.0702 5.6371-2.0702 6.0972 0 1.1488 4.3443 3.0698 5.1567 2.2803 0.3612-0.35102 2.7454-6.0382 5.2982-12.638zm-42.205 9.2483c5.1298-1.2165 5.283-1.5424 3.7869-8.0555-0.52971-2.306-2.1391-10.268-3.5763-17.693-1.4373-7.425-3.0289-13.928-3.5369-14.45-0.5797-0.59622-0.92368-0.50841-0.92368 0.23581 0 0.6522-1.7939 2.373-3.9865 3.824l-3.9865 2.6381-5.3632-2.624c-2.9498-1.4432-5.7966-2.624-6.3264-2.624-0.52978 0-2.2849 1.3953-3.9003 3.1006-4.1891 4.4224-6.7884 5.1972-11.221 3.3451-2.0287-0.84764-4.7054-2.4965-5.9482-3.664-1.2428-1.1676-2.4633-1.9193-2.7121-1.6705-0.24881 0.2488-1.133 6.2881-1.9648 13.421-0.83182 7.1325-1.8123 15.516-2.1789 18.63l-0.66653 5.6621 5.3774 0.59685c14.533 1.613 38.959 1.2643 47.127-0.67277zm-23.25-29.533c-3.4722-1.1937-4.0397-5.589-0.93608-7.25 1.532-0.8199 2.434-0.79741 3.5 0.0873 3.0179 2.5046 0.92156 8.361-2.5639 7.1627zm2-3.7158c0-0.825-0.675-1.5-1.5-1.5s-1.5 0.675-1.5 1.5 0.675 1.5 1.5 1.5 1.5-0.675 1.5-1.5zm50.506 30.494c2.1966-2.4272 1.8152-2.8654-4.8134-5.53-2.8557-1.1479-5.0757-2.5094-4.9333-3.0255 2.137-7.7452 4.7536-14.438 5.6445-14.438 0.61868 0 3.5753 0.89568 6.5704 1.9904 2.995 1.0947 5.7604 1.6572 6.1453 1.25 1.4667-1.5518 7.1436-16.311 6.5154-16.939-0.98592-0.98592-7.0147 2.1582-17.634 9.1968-8.5312 5.6544-10.187 6.3697-16.24 7.0148-6.6654 0.71036-6.7326 0.74752-6.0697 3.3529 0.36869 1.449 1.1701 5.1096 1.781 8.1346l1.1106 5.5 4.4591 0.0609c2.7956 0.0382 6.3244 1.0468 9.4591 2.7034 6.0868 3.2168 5.7798 3.1889 8.0056 0.72949zm15.265-1.8064c0.59996-1.7999-1.467-1.4216-2.1645 0.39606-0.37373 0.97391-0.15024 1.4311 0.58051 1.1875 0.6535-0.21783 1.3663-0.93044 1.584-1.5836zm-99.339-3.4375c0.2586-1.2375 0.63339-5.0625 0.83287-8.5l0.36268-6.25-19.064 0.0327c-20.979 0.036-32.398 1.0996-33.69 3.1379-1.281 2.0206-1.035 9.2393 0.37663 11.054 1.8642 2.3963 3.3086 2.5336 27.981 2.6595l22.731 0.11602 0.47017-2.25zm-46.279-1.5c-3.2396-2.7412-3.7299-6.6735-1.1534-9.25 2.4087-2.4087 6.0874-2.1172 9.25 0.7329 2.0016 1.8038 2.334 7.2831 0.55 9.0671-1.7528 1.7528-6.2643 1.4658-8.6466-0.55zm6.7319-1.158c2.2382-1.4175 0.54632-5.9456-2.5079-6.7121-4.3907-1.102-6.3287 4.9002-2.1274 6.589 2.8909 1.162 2.9908 1.1647 4.6354 0.12318zm127.77-0.76648c-0.62845-0.62845-6.6589 0.91642-6.6589 1.7059 0 0.42977 1.5746 0.29814 3.4992-0.29252 1.9245-0.59066 3.3464-1.2267 3.1597-1.4133zm-4.1589-1.3255c2-0.85943 2-0.85943 0-0.9144-1.1-0.0302-2.675 0.38124-3.5 0.9144-1.3333 0.86167-1.3333 0.96327 0 0.9144 0.825-0.0302 2.4-0.44171 3.5-0.9144zm4.6875-1.6831c-0.72188-0.28887-1.5844-0.25335-1.9167 0.0789-0.33229 0.33229 0.25834 0.56864 1.3125 0.52522 1.165-0.048 1.4019-0.28494 0.60417-0.60416zm-2.2638-1.4886c2.792-0.64446 5.0763-1.5926 5.0763-2.107 0-0.51438-0.57405-0.71495-1.2757-0.44572-0.70162 0.26924-3.8516 1.0243-7 1.6779s-5.7243 1.3815-5.7243 1.6175c0 0.76609 3.7336 0.45538 8.9237-0.74265zm-0.007-5.4719c0.22912-0.196-1.2334-0.35636-3.25-0.35636-2.0167 0-3.6667 0.43875-3.6667 0.975 0 0.86141 5.7918 0.34337 6.9167-0.61864zm-111.17-4.7456 18.497-1.1108-4.6572-3.3394c-10.318-7.3986-18.775-20.779-22.611-35.775-5.9775-23.372 2.5216-49.891 20.929-65.302l4.82-4.0355-1.3598-5.2422c-0.7479-2.8832-1.3598-9.8691-1.3598-15.524 0-5.6551-0.38246-10.282-0.84992-10.282-1.8095 0-19.412 11.762-25.062 16.747-7.0722 6.2393-16.999 19.269-21.104 27.7-1.6207 3.329-4.3774 11.453-6.1259 18.053-2.7742 10.472-3.1844 13.656-3.2201 25-0.0326 10.357 0.41403 14.728 2.1966 21.5 2.4479 9.2992 8.3255 22.466 13.176 29.515 2.677 3.8909 3.4399 4.4097 5.6642 3.8514 1.4138-0.35484 10.894-1.145 21.067-1.756zm82.996-5.1118c-1.4829-4.8317-2.7597-4.4209-1.5139 0.48701 0.55647 2.1923 1.3664 3.7669 1.7998 3.499 0.4334-0.26786 0.30476-2.0616-0.28587-3.986zm22.382-1.5719c5.5294-3.3401 12.077-6.9401 14.549-8 5.5122-2.3628 12.548-2.4859 15.917-0.2785 3.1064 2.0354 3.4915 1.6257 6.7203-7.1486 3.9743-10.8 4.8201-14.971 5.5648-27.444 1.8289-30.629-6.326-52.303-27.6-73.353-10.239-10.131-17.81-15.471-27.918-19.691-6.9675-2.9087-18.385-6.3142-19.025-5.6745-0.17577 0.17576 0.63578 4.0975 1.8034 8.715 1.5951 6.3077 1.988 10.143 1.5801 15.421l-0.54295 7.0261 6.6904 3.2008c12.844 6.1448 25.256 19.755 30.086 32.989 6.8737 18.834 6.0982 38.007-2.2278 55.083-3.6121 7.4082-14.39 20.489-18.732 22.734-3.7719 1.9505-3.7616 2.4929 0.0472 2.4929 1.9414 0 6.6531-2.1864 13.087-6.0728zm-77.121 2.9548c0-0.55-0.45-0.72189-1-0.38197s-1 1.068-1 1.618 0.45 0.72189 1 0.38197 1-1.068 1-1.618zm20.25-6.274c2.8845-2.1896 2.0735-2.609-5-2.5857l-6.75 0.0222 2.5 1.9556c2.8915 2.2618 6.7383 2.5146 9.25 0.60795zm22-3c2.5385-1.927 2.1492-2.7305-1-2.0643-1.5125 0.31999-3.8515 0.80948-5.1978 1.0878-1.9351 0.39999-2.1446 0.69782-1 1.422 2.0529 1.2988 5.1528 1.107 7.1978-0.44545zm0.0587-5.0188c10.546-2.6072 19.189-9.7695 24.322-20.157 4.3832-8.8687 5.1008-14.587 2.9732-23.691-3.61-15.448-13.477-28.612-26.334-35.134l-3.2302-1.6384 1.9274-5.2346c3.8181-10.369 5.3592-21.176 4.1649-29.206-1.2329-8.2892-6.4183-23.442-9.1678-26.79-2.4076-2.9317-4.364-1.7657-8.0751 4.813-6.6012 11.702-7.3868 24.149-3.3172 52.55l0.65946 4.6022-4.7373 1.1929c-2.6055 0.65607-4.9733 0.95686-5.2618 0.66841-0.57959-0.57959-1.514-5.9364-3.7073-21.254-2.2499-15.713-6.9867-25.608-16.839-35.175l-4.4937-4.3639-1.293 2.3639c-1.7866 3.2662-2.528 32.309-0.98158 38.451 0.63605 2.526 3.4012 9.5677 6.1447 15.648 4.2406 9.3986 4.7971 11.316 3.713 12.795-0.7014 0.95661-3.4286 4.6829-6.0604 8.2806-17.11 23.389-11.786 57.162 9.8744 62.643 5.3214 1.3464 32.535 0.4113 39.719-1.3648zm-18.964-7.4179c2.0519-2.2673 2.096-3.1713 0.15497-3.1713-0.825 0-1.5-0.50888-1.5-1.1308 0-0.74165 1.2494-0.92809 3.6303-0.54172 2.3444 0.38045 4.6797 0.0465 6.5929-0.9429 1.6294-0.84261 3.2583-1.2122 3.6197-0.82137 0.36139 0.39085 0.0946 0.91153-0.59293 1.1571-1.9458 0.69494-1.4746 1.9878 0.95633 2.6235 3.391 0.88677 1.1902 2.1096-3.2234 1.7909-2.3751-0.17148-4.8219 0.33957-6.1799 1.2907-1.2364 0.86604-2.8927 1.5746-3.6806 1.5746-1.1622 0-1.1202-0.34506 0.2225-1.8287zm-24.947-18.576c-0.84807-2.21-0.0154-7.9028 1.2149-8.3059 1.8823-0.61675 3.7374 5.1873 2.4355 7.62-1.292 2.414-2.8732 2.7112-3.6504 0.68593zm51.677-8.5489c-1.7029-1.0524-1.8664-6.6549-0.24164-8.2797 1.7098-1.7098 3.5 0.45545 3.5 4.2333 0 3.6524-1.2946 5.26-3.2584 4.0463zm-31.32-68.647c1.9903-0.53337 2.2538-1.2533 2.2827-6.2363 0.0336-5.7805 1.3826-17.033 2.4796-20.683 0.6026-2.0048 0.41386-2.0304-8.6982-1.1819-10.25 0.95445-11.979 1.7562-9.6137 4.4575 2.2401 2.5581 5.3047 9.9887 6.7261 16.309 2.0004 8.8941 1.8016 8.6804 6.8235 7.3346z" />
  <metadata
     id="metadata28">
    <rdf:RDF>
      <cc:Work>
        <dc:format>image/svg+xml</dc:format>
        <dc:type
           rdf:resource="http://purl.org/dc/dcmitype/StillImage" />
        <cc:license
           rdf:resource="http://creativecommons.org/licenses/publicdomain/" />
        <dc:publisher>
          <cc:Agent
             rdf:about="http://openclipart.org/">
            <dc:title>Openclipart</dc:title>
          </cc:Agent>
        </dc:publisher>
        <dc:title>Direct Action Rabbit</dc:title>
        <dc:date>2011-04-09T19:36:10</dc:date>
        <dc:description>A popular logo for Direct Action: A (cute) rabbit with a huge wrench in front of circles</dc:description>
        <dc:source>https://openclipart.org/detail/131821/direct-action-rabbit-with-circles-by-hedwig</dc:source>
        <dc:creator>
          <cc:Agent>
            <dc:title>hedwig</dc:title>
          </cc:Agent>
        </dc:creator>
        <dc:subject>
          <rdf:Bag>
            <rdf:li>Direct Action</rdf:li>
            <rdf:li>leftist</rdf:li>
            <rdf:li>rabbit</rdf:li>
            <rdf:li>revolutionary</rdf:li>
            <rdf:li>star</rdf:li>
          </rdf:Bag>
        </dc:subject>
      </cc:Work>
      <cc:License
         rdf:about="http://creativecommons.org/licenses/publicdomain/">
        <cc:permits
           rdf:resource="http://creativecommons.org/ns#Reproduction" />
        <cc:permits
           rdf:resource="http://creativecommons.org/ns#Distribution" />
        <cc:permits
           rdf:resource="http://creativecommons.org/ns#DerivativeWorks" />
      </cc:License>
    </rdf:RDF>
  </metadata>
</svg>
